<mxfile host="app.diagrams.net" modified="2024-01-03T19:13:49.714Z" agent="Mozilla/5.0 (X11; Linux x86_64) AppleWebKit/537.36 (KHTML, like Gecko) Chrome/120.0.0.0 Safari/537.36" etag="ZaRyGLOCzGWww0s1PDRQ" version="22.1.16" type="github">
  <diagram name="Page-1" id="c37626ed-c26b-45fb-9056-f9ebc6bb27b6">
    <mxGraphModel dx="2074" dy="1131" grid="1" gridSize="10" guides="1" tooltips="1" connect="1" arrows="1" fold="1" page="1" pageScale="1" pageWidth="1100" pageHeight="850" background="none" math="0" shadow="0">
      <root>
        <mxCell id="0" />
        <mxCell id="1" parent="0" />
        <mxCell id="5QUIOsg6C6gAUDgOOI8i-7" style="rounded=0;orthogonalLoop=1;jettySize=auto;html=1;fontSize=14;edgeStyle=orthogonalEdgeStyle;endArrow=none;endFill=0;strokeWidth=3;" edge="1" parent="1" source="5QUIOsg6C6gAUDgOOI8i-2" target="5QUIOsg6C6gAUDgOOI8i-3">
          <mxGeometry relative="1" as="geometry">
            <Array as="points">
              <mxPoint x="500" y="120" />
            </Array>
          </mxGeometry>
        </mxCell>
        <mxCell id="5QUIOsg6C6gAUDgOOI8i-8" style="edgeStyle=orthogonalEdgeStyle;rounded=0;orthogonalLoop=1;jettySize=auto;html=1;endArrow=none;endFill=0;strokeWidth=3;" edge="1" parent="1" source="5QUIOsg6C6gAUDgOOI8i-2" target="5QUIOsg6C6gAUDgOOI8i-4">
          <mxGeometry relative="1" as="geometry">
            <Array as="points">
              <mxPoint x="500" y="505" />
            </Array>
          </mxGeometry>
        </mxCell>
        <mxCell id="5QUIOsg6C6gAUDgOOI8i-2" value="" style="sketch=0;pointerEvents=1;shadow=0;dashed=0;html=1;strokeColor=none;fillColor=#434445;aspect=fixed;labelPosition=center;verticalLabelPosition=bottom;verticalAlign=top;align=center;outlineConnect=0;shape=mxgraph.vvd.virtual_machine;" vertex="1" parent="1">
          <mxGeometry x="400" y="210" width="180" height="180" as="geometry" />
        </mxCell>
        <mxCell id="5QUIOsg6C6gAUDgOOI8i-3" value="" style="sketch=0;pointerEvents=1;shadow=0;dashed=0;html=1;strokeColor=none;fillColor=#434445;aspect=fixed;labelPosition=center;verticalLabelPosition=bottom;verticalAlign=top;align=center;outlineConnect=0;shape=mxgraph.vvd.virtual_machine;" vertex="1" parent="1">
          <mxGeometry x="730" y="80" width="110" height="110" as="geometry" />
        </mxCell>
        <mxCell id="5QUIOsg6C6gAUDgOOI8i-4" value="" style="sketch=0;pointerEvents=1;shadow=0;dashed=0;html=1;strokeColor=none;fillColor=#434445;aspect=fixed;labelPosition=center;verticalLabelPosition=bottom;verticalAlign=top;align=center;outlineConnect=0;shape=mxgraph.vvd.virtual_machine;" vertex="1" parent="1">
          <mxGeometry x="730" y="450" width="110" height="110" as="geometry" />
        </mxCell>
        <mxCell id="5QUIOsg6C6gAUDgOOI8i-5" value="Linux Mint Client" style="text;html=1;align=center;verticalAlign=middle;resizable=0;points=[];autosize=1;strokeColor=none;fillColor=none;fontSize=22;" vertex="1" parent="1">
          <mxGeometry x="690" y="185" width="190" height="40" as="geometry" />
        </mxCell>
        <mxCell id="5QUIOsg6C6gAUDgOOI8i-6" value="CentOS Client" style="text;html=1;align=center;verticalAlign=middle;resizable=0;points=[];autosize=1;strokeColor=none;fillColor=none;fontSize=22;" vertex="1" parent="1">
          <mxGeometry x="705" y="570" width="160" height="40" as="geometry" />
        </mxCell>
      </root>
    </mxGraphModel>
  </diagram>
</mxfile>
